<?xml version="1.0" encoding="UTF-8"?>
<svg id="Layer_1" data-name="Layer 1" xmlns="http://www.w3.org/2000/svg" viewBox="0 0 396.55 365.27">
  <defs>
    <style>
      .cls-1 {
        fill: #e6a27a;
      }

      .cls-2 {
        fill: #a3c4e6;
      }
    </style>
  </defs>
  <path class="cls-1" d="M138.08,140.2c-23.61,3.3-19.38,23.41-41.36,33.63-10.94,5.09-22.45,2.69-30.76-5.61-8.95-8.93-11.87-20.93-8.21-33.32,6.24-21.08,1.95-33.21,7.25-46.63,6.59-16.67,23.45-24.7,40.82-20.87,7.53,1.66,14.04,5.08,21.41,7.52l20.11,3.73c11.83,2.2,20.23,9.97,24.17,21.12,4.68,13.23-.35,26.36-12.54,33.65-6.26,3.74-13.43,5.74-20.9,6.78Z"/>
  <path class="cls-2" d="M301.74,177.39c-20.35-10.18-18.63-30.18-42.72-31.46-9.22-.49-17.94-4.14-24.74-9.85-8.81-7.4-11.86-18.04-8.34-28.86,3.76-11.59,12.97-19.75,25.39-21.62,10.61-1.6,20.05-4.55,29.8-9.16,10.91-5.15,23.36-5.78,34.06-.44,10.69,5.33,16.86,15.43,19.08,26.95l2.03,20.08,5.43,19.32c3.2,11.38-.31,21.98-8.59,30.04-8.57,8.34-20.45,10.48-31.4,5Z"/>
  <path class="cls-1" d="M315.15,266.24c-7.43,17.15-25.29,16.99-42.04,8.82-9.47-4.62-19.42-7.67-30.11-6.77-7.98.68-13.51-4.25-15.46-11.72-2.01-7.71-2.13-15.3,2.38-22.56,10.84-17.44,33.24-5.54,51.54-33.2,9.27-14.02,27.09-14.95,39.23-4.36,5.69,4.96,8.19,10.88,4.54,18.13-11.05,21.95-2.92,35.12-10.09,51.66Z"/>
  <path class="cls-2" d="M155.88,278.12c-23.77-3.86-33.9,8.28-52.78,6.04-18.09-2.15-22.92-20.04-20.06-37.94,1.76-11,.5-21.29-3.43-31.47-2.6-6.74,1.75-13.01,7.4-16.51,6.8-4.22,13.84-6.36,22.27-4.16,18.96,4.94,15.36,29.86,47.12,38.66,16.02,4.44,22.17,21.23,15.84,35.57-3.21,7.26-8,11.17-16.36,9.81Z"/>
  <path class="cls-1" d="M339.85,355.57c-1.09,6.84-6.61,10.11-12.91,9.66-17.32-1.24-36.87-15.83-42.53-33.34-3.3-10.19-.47-19.8,8.1-25.69s19.33-5.01,27.01,2.59c11.07,10.98,22.82,31.13,20.33,46.78Z"/>
  <path class="cls-1" d="M360.67,275.57c25.61,15.8,24.86,59.33,10.88,63.85s-35.59-19.76-41.77-39.87c-2.7-8.78,1.03-17.25,7.68-22.26s15.56-6.44,23.21-1.72Z"/>
  <path class="cls-2" d="M23.64,334.79c-12.62-.68-12.61-19.7-8.49-34.38,2.95-10.48,8.78-19.28,17.49-25.47s19.2-6.09,26.93.31c8.27,6.85,10.29,17.64,4.77,27.43-7.87,13.96-25.03,32.94-40.71,32.1Z"/>
  <path class="cls-2" d="M106.84,337.21c-13.31,26.28-54.48,35.66-56.97,18.03-2.2-15.56,11.85-35.21,24.65-45.38,8.69-6.91,19.75-6.73,27.88.23,7.88,6.75,9.49,17.15,4.44,27.13Z"/>
  <path class="cls-1" d="M267.93,339.71c-7.28,6.09-18.86-1.6-26.94-9.49s-12.94-17.1-13.66-28.09c-.59-9.03,3.61-16.45,11.4-19.87s17.49-2.18,22.93,5.38c11.19,15.56,16.29,43.69,6.28,52.07Z"/>
  <path class="cls-1" d="M364.91,216.61c19.03,12.39,26.07,42.2,16.51,49.8-10.43,8.29-36.12-8.18-46.44-26.07-4.82-8.35-1.69-17.97,4.94-23.57,7.16-6.06,16.54-5.67,24.99-.16Z"/>
  <path class="cls-2" d="M69.88,235.12c-5.46,16.69-40.41,35.61-51.18,25.98-9.18-8.21,1.04-36.84,20.65-47.25,7.95-4.22,16.29-4.85,23.11.26,6.22,4.66,10.1,12.81,7.42,21.01Z"/>
  <path class="cls-2" d="M151,339.24c-9.02,7.02-20.83,13.17-28.08,6.68-2.01-1.8-3.37-5.32-3.6-9.02-.87-13.78,4.49-26.78,12.21-38.06,5.66-8.26,15.29-11.52,24.09-7.8,9.28,3.92,13.78,13.03,11.5,23.35s-7.95,18.5-16.12,24.86Z"/>
  <path class="cls-1" d="M32.94,80.76c-13.85-5.69-22.51-18.64-21.59-33.28.37-5.91,3.31-11.12,7.4-14.13,4.87-3.58,11.02-4.56,16.98-2.89,11.91,3.35,19.9,12.68,23.8,24.18,2.67,7.87,1.68,15.97-4,21.63s-14.17,7.95-22.59,4.49Z"/>
  <path class="cls-1" d="M103.41,36.27c-1.21,12.04-13.37,21.23-24.84,17.21-15.03-5.27-24.3-21.51-22.21-36.84,1.68-12.36,13.4-19.52,24.85-15.53,14.47,5.04,23.82,19.17,22.21,35.16Z"/>
  <path class="cls-2" d="M317.58,58.23c-12.01,5.73-25.31-3.15-27.2-15.32-2.35-15.17,5.72-29.73,19.76-35.4,6.07-2.45,12.38-1.88,17.96,1.76,4.24,2.77,7.72,7.97,8.42,14.52,1.44,13.62-5.63,28.08-18.93,34.43Z"/>
  <path class="cls-2" d="M361.7,84.56c-11.54,4.69-25.76-1.8-27.41-14.49-2.04-15.79,8.97-31.14,23.69-35.47,6.1-1.79,11.97-.56,16.85,2.93,4.22,3.02,7.32,8.4,7.62,14.69.68,14.14-7.04,26.77-20.75,32.34Z"/>
  <path class="cls-1" d="M156.29,50.21c-3.08,8.59-13.56,14.66-22.24,11.86-14.73-4.73-22.88-21.38-19.14-35.81,2.9-11.2,14.26-16.91,24.77-12.66,14.05,5.69,22.05,21.43,16.61,36.6Z"/>
  <path class="cls-1" d="M46.93,117.81c-.03,9.92-9.75,17.91-18.87,17.76C12.11,135.3-.15,121.81,0,106.31c.12-12.49,11.03-20.45,23.1-18.06,13.01,3.27,23.88,14.65,23.84,29.55Z"/>
  <path class="cls-2" d="M262.84,68.58c-9.73,4.33-21.38-2.05-24.77-11.29-5.3-14.43,1.83-30.26,15.93-35.94,11.21-4.51,23.2,2.84,25.26,14.69,2.23,12.82-3.57,26.81-16.42,32.53Z"/>
  <path class="cls-2" d="M371.34,138.02c-9.8,1.04-19.79-6.31-20.85-15.91-1.53-13.95,8.7-26.86,21.51-30.58,6.18-1.79,11.76-.75,17.01,2.84,4.01,2.75,7.4,8.05,7.53,14.33.31,14.41-9.66,27.68-25.2,29.32Z"/>
</svg>